<mxfile host="app.diagrams.net" modified="2023-11-29T10:01:28.601Z" agent="Mozilla/5.0 (Windows NT 10.0; Win64; x64) AppleWebKit/537.36 (KHTML, like Gecko) Chrome/119.0.0.0 Safari/537.36" version="22.1.4" etag="Y8bXBJ6xn6T6PQqcqzXo" type="github">
  <diagram name="Page-1" id="Mkso30scFpM5eTM2bm36">
    <mxGraphModel>
      <root>
        <mxCell id="0" />
        <mxCell id="1" parent="0" />
      </root>
    </mxGraphModel>
  </diagram>
</mxfile>
